<svg xmlns="http://www.w3.org/2000/svg" xmlns:xlink="http://www.w3.org/1999/xlink" width="500" zoomAndPan="magnify" viewBox="0 0 375 374.999991" height="500" preserveAspectRatio="xMidYMid meet" version="1.2"><defs><clipPath id="19cf84a0e2"><path d="M 187.5 0 L 223.898438 51.667969 L 281.25 25.121094 L 286.9375 88.0625 L 349.878906 93.75 L 323.332031 151.101562 L 375 187.5 L 323.332031 223.898438 L 349.878906 281.25 L 286.9375 286.9375 L 281.25 349.878906 L 223.898438 323.332031 L 187.5 375 L 151.101562 323.332031 L 93.75 349.878906 L 88.0625 286.9375 L 25.121094 281.25 L 51.667969 223.898438 L 0 187.5 L 51.667969 151.101562 L 25.121094 93.75 L 88.0625 88.0625 L 93.75 25.121094 L 151.101562 51.667969 Z M 187.5 0 "/></clipPath><radialGradient gradientTransform="matrix(1,0,0,1,0.0000045,-0)" id="9a924f2a7a" gradientUnits="userSpaceOnUse" r="265.164544" cx="187.499995" fx="187.499995" cy="187.499995" fy="187.499995"><stop style="stop-color:#db272c;stop-opacity:1;" offset="0"/><stop style="stop-color:#da272d;stop-opacity:1;" offset="0.03125"/><stop style="stop-color:#d9282d;stop-opacity:1;" offset="0.0585938"/><stop style="stop-color:#d9282d;stop-opacity:1;" offset="0.0859375"/><stop style="stop-color:#d8282e;stop-opacity:1;" offset="0.113281"/><stop style="stop-color:#d7292e;stop-opacity:1;" offset="0.140625"/><stop style="stop-color:#d7292e;stop-opacity:1;" offset="0.164062"/><stop style="stop-color:#d6292e;stop-opacity:1;" offset="0.1875"/><stop style="stop-color:#d5292f;stop-opacity:1;" offset="0.210938"/><stop style="stop-color:#d5292f;stop-opacity:1;" offset="0.234375"/><stop style="stop-color:#d42a2f;stop-opacity:1;" offset="0.257812"/><stop style="stop-color:#d42a2f;stop-opacity:1;" offset="0.277344"/><stop style="stop-color:#d32a2f;stop-opacity:1;" offset="0.296875"/><stop style="stop-color:#d32a30;stop-opacity:1;" offset="0.316406"/><stop style="stop-color:#d22b30;stop-opacity:1;" offset="0.355469"/><stop style="stop-color:#d12b31;stop-opacity:1;" offset="0.394531"/><stop style="stop-color:#d02b31;stop-opacity:1;" offset="0.429688"/><stop style="stop-color:#cf2c31;stop-opacity:1;" offset="0.464844"/><stop style="stop-color:#ce2c32;stop-opacity:1;" offset="0.496094"/><stop style="stop-color:#ce2c32;stop-opacity:1;" offset="0.527344"/><stop style="stop-color:#cd2d32;stop-opacity:1;" offset="0.554688"/><stop style="stop-color:#cc2d33;stop-opacity:1;" offset="0.582031"/><stop style="stop-color:#cc2d33;stop-opacity:1;" offset="0.605469"/><stop style="stop-color:#cb2d33;stop-opacity:1;" offset="0.628906"/><stop style="stop-color:#cb2e33;stop-opacity:1;" offset="0.648438"/><stop style="stop-color:#ca2e34;stop-opacity:1;" offset="0.667969"/><stop style="stop-color:#c92e34;stop-opacity:1;" offset="0.707031"/><stop style="stop-color:#c82f34;stop-opacity:1;" offset="0.742188"/><stop style="stop-color:#c72f35;stop-opacity:1;" offset="0.773438"/><stop style="stop-color:#c72f35;stop-opacity:1;" offset="0.800781"/><stop style="stop-color:#c62f35;stop-opacity:1;" offset="0.824219"/><stop style="stop-color:#c53036;stop-opacity:1;" offset="0.84375"/><stop style="stop-color:#c53036;stop-opacity:1;" offset="0.882812"/><stop style="stop-color:#c43036;stop-opacity:1;" offset="0.910156"/><stop style="stop-color:#c33036;stop-opacity:1;" offset="0.929688"/><stop style="stop-color:#c23137;stop-opacity:1;" offset="0.964844"/><stop style="stop-color:#c23137;stop-opacity:1;" offset="1"/></radialGradient></defs><g id="3a36146126"><g clip-rule="nonzero" clip-path="url(#19cf84a0e2)"><rect x="0" width="375" y="0" height="374.999991" style="fill:url(#9a924f2a7a);stroke:none;"/></g><g style="fill:#ffffff;fill-opacity:1;"><g transform="translate(76.478606, 148.439581)"><path style="stroke:none" d="M 31.671875 -7.4375 L 31.671875 0 L 1.859375 0 L 1.859375 -5.921875 L 17.078125 -20.296875 C 18.691406 -21.828125 19.78125 -23.144531 20.34375 -24.25 C 20.90625 -25.363281 21.1875 -26.46875 21.1875 -27.5625 C 21.1875 -29.132812 20.648438 -30.34375 19.578125 -31.1875 C 18.515625 -32.039062 16.945312 -32.46875 14.875 -32.46875 C 13.144531 -32.46875 11.582031 -32.132812 10.1875 -31.46875 C 8.800781 -30.8125 7.640625 -29.828125 6.703125 -28.515625 L 0.0625 -32.796875 C 1.59375 -35.085938 3.710938 -36.878906 6.421875 -38.171875 C 9.128906 -39.472656 12.226562 -40.125 15.71875 -40.125 C 18.65625 -40.125 21.222656 -39.644531 23.421875 -38.6875 C 25.617188 -37.726562 27.328125 -36.375 28.546875 -34.625 C 29.765625 -32.882812 30.375 -30.832031 30.375 -28.46875 C 30.375 -26.320312 29.921875 -24.304688 29.015625 -22.421875 C 28.117188 -20.546875 26.375 -18.40625 23.78125 -16 L 14.703125 -7.4375 Z M 31.671875 -7.4375 "/></g></g><g style="fill:#ffffff;fill-opacity:1;"><g transform="translate(109.72548, 148.439581)"><path style="stroke:none" d="M 13.8125 -32.125 L 13.8125 -21.703125 L 32.0625 -21.703125 L 32.0625 -14.375 L 13.8125 -14.375 L 13.8125 0 L 4.671875 0 L 4.671875 -39.453125 L 34.484375 -39.453125 L 34.484375 -32.125 Z M 13.8125 -32.125 "/></g></g><g style="fill:#ffffff;fill-opacity:1;"><g transform="translate(144.888263, 148.439581)"><path style="stroke:none" d="M 16.28125 -30.765625 C 20.976562 -30.765625 24.585938 -29.644531 27.109375 -27.40625 C 29.628906 -25.175781 30.890625 -21.804688 30.890625 -17.296875 L 30.890625 0 L 22.65625 0 L 22.65625 -3.78125 C 21 -0.957031 17.914062 0.453125 13.40625 0.453125 C 11.082031 0.453125 9.066406 0.0546875 7.359375 -0.734375 C 5.648438 -1.523438 4.34375 -2.613281 3.4375 -4 C 2.53125 -5.394531 2.078125 -6.972656 2.078125 -8.734375 C 2.078125 -11.554688 3.140625 -13.773438 5.265625 -15.390625 C 7.390625 -17.003906 10.671875 -17.8125 15.109375 -17.8125 L 22.09375 -17.8125 C 22.09375 -19.726562 21.507812 -21.203125 20.34375 -22.234375 C 19.175781 -23.265625 17.429688 -23.78125 15.109375 -23.78125 C 13.492188 -23.78125 11.90625 -23.523438 10.34375 -23.015625 C 8.78125 -22.515625 7.457031 -21.832031 6.375 -20.96875 L 3.21875 -27.109375 C 4.863281 -28.273438 6.84375 -29.175781 9.15625 -29.8125 C 11.46875 -30.445312 13.84375 -30.765625 16.28125 -30.765625 Z M 15.609375 -5.46875 C 17.109375 -5.46875 18.441406 -5.8125 19.609375 -6.5 C 20.773438 -7.195312 21.601562 -8.222656 22.09375 -9.578125 L 22.09375 -12.6875 L 16.0625 -12.6875 C 12.457031 -12.6875 10.65625 -11.5 10.65625 -9.125 C 10.65625 -8 11.09375 -7.109375 11.96875 -6.453125 C 12.851562 -5.796875 14.066406 -5.46875 15.609375 -5.46875 Z M 15.609375 -5.46875 "/></g></g><g style="fill:#ffffff;fill-opacity:1;"><g transform="translate(179.994701, 148.439581)"><path style="stroke:none" d="M 18.71875 0.453125 C 15.476562 0.453125 12.570312 -0.210938 10 -1.546875 C 7.425781 -2.878906 5.414062 -4.726562 3.96875 -7.09375 C 2.519531 -9.46875 1.796875 -12.15625 1.796875 -15.15625 C 1.796875 -18.164062 2.519531 -20.851562 3.96875 -23.21875 C 5.414062 -25.582031 7.425781 -27.429688 10 -28.765625 C 12.570312 -30.097656 15.476562 -30.765625 18.71875 -30.765625 C 21.90625 -30.765625 24.691406 -30.097656 27.078125 -28.765625 C 29.460938 -27.429688 31.203125 -25.523438 32.296875 -23.046875 L 25.46875 -19.390625 C 23.894531 -22.171875 21.625 -23.5625 18.65625 -23.5625 C 16.363281 -23.5625 14.460938 -22.804688 12.953125 -21.296875 C 11.453125 -19.796875 10.703125 -17.75 10.703125 -15.15625 C 10.703125 -12.5625 11.453125 -10.515625 12.953125 -9.015625 C 14.460938 -7.515625 16.363281 -6.765625 18.65625 -6.765625 C 21.65625 -6.765625 23.925781 -8.15625 25.46875 -10.9375 L 32.296875 -7.21875 C 31.203125 -4.8125 29.460938 -2.929688 27.078125 -1.578125 C 24.691406 -0.222656 21.90625 0.453125 18.71875 0.453125 Z M 18.71875 0.453125 "/></g></g><g style="fill:#ffffff;fill-opacity:1;"><g transform="translate(213.748728, 148.439581)"><path style="stroke:none" d="M 23.609375 -1.46875 C 22.742188 -0.820312 21.679688 -0.335938 20.421875 -0.015625 C 19.171875 0.296875 17.847656 0.453125 16.453125 0.453125 C 12.847656 0.453125 10.054688 -0.46875 8.078125 -2.3125 C 6.109375 -4.15625 5.125 -6.859375 5.125 -10.421875 L 5.125 -22.875 L 0.453125 -22.875 L 0.453125 -29.640625 L 5.125 -29.640625 L 5.125 -37.03125 L 13.921875 -37.03125 L 13.921875 -29.640625 L 21.46875 -29.640625 L 21.46875 -22.875 L 13.921875 -22.875 L 13.921875 -10.546875 C 13.921875 -9.265625 14.25 -8.273438 14.90625 -7.578125 C 15.5625 -6.878906 16.492188 -6.53125 17.703125 -6.53125 C 19.085938 -6.53125 20.269531 -6.910156 21.25 -7.671875 Z M 23.609375 -1.46875 "/></g></g><g style="fill:#ffffff;fill-opacity:1;"><g transform="translate(237.303277, 148.439581)"><path style="stroke:none" d="M 18.484375 0.453125 C 15.285156 0.453125 12.421875 -0.210938 9.890625 -1.546875 C 7.359375 -2.878906 5.375 -4.726562 3.9375 -7.09375 C 2.507812 -9.46875 1.796875 -12.15625 1.796875 -15.15625 C 1.796875 -18.164062 2.507812 -20.851562 3.9375 -23.21875 C 5.375 -25.582031 7.359375 -27.429688 9.890625 -28.765625 C 12.421875 -30.097656 15.285156 -30.765625 18.484375 -30.765625 C 21.679688 -30.765625 24.535156 -30.097656 27.046875 -28.765625 C 29.566406 -27.429688 31.539062 -25.582031 32.96875 -23.21875 C 34.394531 -20.851562 35.109375 -18.164062 35.109375 -15.15625 C 35.109375 -12.15625 34.394531 -9.46875 32.96875 -7.09375 C 31.539062 -4.726562 29.566406 -2.878906 27.046875 -1.546875 C 24.535156 -0.210938 21.679688 0.453125 18.484375 0.453125 Z M 18.484375 -6.765625 C 20.742188 -6.765625 22.59375 -7.523438 24.03125 -9.046875 C 25.476562 -10.566406 26.203125 -12.601562 26.203125 -15.15625 C 26.203125 -17.71875 25.476562 -19.757812 24.03125 -21.28125 C 22.59375 -22.800781 20.742188 -23.5625 18.484375 -23.5625 C 16.234375 -23.5625 14.375 -22.800781 12.90625 -21.28125 C 11.4375 -19.757812 10.703125 -17.71875 10.703125 -15.15625 C 10.703125 -12.601562 11.4375 -10.566406 12.90625 -9.046875 C 14.375 -7.523438 16.234375 -6.765625 18.484375 -6.765625 Z M 18.484375 -6.765625 "/></g></g><g style="fill:#ffffff;fill-opacity:1;"><g transform="translate(274.212935, 148.439581)"><path style="stroke:none" d="M 12.453125 -26.3125 C 13.503906 -27.78125 14.921875 -28.890625 16.703125 -29.640625 C 18.492188 -30.390625 20.550781 -30.765625 22.875 -30.765625 L 22.875 -22.65625 C 21.90625 -22.726562 21.25 -22.765625 20.90625 -22.765625 C 18.394531 -22.765625 16.421875 -22.0625 14.984375 -20.65625 C 13.554688 -19.25 12.84375 -17.132812 12.84375 -14.3125 L 12.84375 0 L 4.0625 0 L 4.0625 -30.328125 L 12.453125 -30.328125 Z M 12.453125 -26.3125 "/></g></g><g style="fill:#ffffff;fill-opacity:1;"><g transform="translate(48.278106, 207.23152)"><path style="stroke:none" d="M 4.671875 -39.453125 L 13.8125 -39.453125 L 13.8125 -7.4375 L 33.59375 -7.4375 L 33.59375 0 L 4.671875 0 Z M 4.671875 -39.453125 "/></g></g><g style="fill:#ffffff;fill-opacity:1;"><g transform="translate(82.088477, 207.23152)"><path style="stroke:none" d="M 18.484375 0.453125 C 15.285156 0.453125 12.421875 -0.210938 9.890625 -1.546875 C 7.359375 -2.878906 5.375 -4.726562 3.9375 -7.09375 C 2.507812 -9.46875 1.796875 -12.15625 1.796875 -15.15625 C 1.796875 -18.164062 2.507812 -20.851562 3.9375 -23.21875 C 5.375 -25.582031 7.359375 -27.429688 9.890625 -28.765625 C 12.421875 -30.097656 15.285156 -30.765625 18.484375 -30.765625 C 21.679688 -30.765625 24.535156 -30.097656 27.046875 -28.765625 C 29.566406 -27.429688 31.539062 -25.582031 32.96875 -23.21875 C 34.394531 -20.851562 35.109375 -18.164062 35.109375 -15.15625 C 35.109375 -12.15625 34.394531 -9.46875 32.96875 -7.09375 C 31.539062 -4.726562 29.566406 -2.878906 27.046875 -1.546875 C 24.535156 -0.210938 21.679688 0.453125 18.484375 0.453125 Z M 18.484375 -6.765625 C 20.742188 -6.765625 22.59375 -7.523438 24.03125 -9.046875 C 25.476562 -10.566406 26.203125 -12.601562 26.203125 -15.15625 C 26.203125 -17.71875 25.476562 -19.757812 24.03125 -21.28125 C 22.59375 -22.800781 20.742188 -23.5625 18.484375 -23.5625 C 16.234375 -23.5625 14.375 -22.800781 12.90625 -21.28125 C 11.4375 -19.757812 10.703125 -17.71875 10.703125 -15.15625 C 10.703125 -12.601562 11.4375 -10.566406 12.90625 -9.046875 C 14.375 -7.523438 16.234375 -6.765625 18.484375 -6.765625 Z M 18.484375 -6.765625 "/></g></g><g style="fill:#ffffff;fill-opacity:1;"><g transform="translate(118.998135, 207.23152)"><path style="stroke:none" d="M 35.34375 -30.328125 L 35.34375 -5.078125 C 35.34375 0.484375 33.894531 4.617188 31 7.328125 C 28.101562 10.035156 23.875 11.390625 18.3125 11.390625 C 15.382812 11.390625 12.601562 11.03125 9.96875 10.3125 C 7.34375 9.601562 5.164062 8.570312 3.4375 7.21875 L 6.9375 0.90625 C 8.207031 1.957031 9.816406 2.789062 11.765625 3.40625 C 13.722656 4.03125 15.679688 4.34375 17.640625 4.34375 C 20.679688 4.34375 22.925781 3.65625 24.375 2.28125 C 25.820312 0.90625 26.546875 -1.164062 26.546875 -3.9375 L 26.546875 -5.234375 C 24.253906 -2.722656 21.0625 -1.46875 16.96875 -1.46875 C 14.1875 -1.46875 11.640625 -2.078125 9.328125 -3.296875 C 7.015625 -4.515625 5.179688 -6.234375 3.828125 -8.453125 C 2.472656 -10.671875 1.796875 -13.226562 1.796875 -16.125 C 1.796875 -19.007812 2.472656 -21.5625 3.828125 -23.78125 C 5.179688 -26 7.015625 -27.71875 9.328125 -28.9375 C 11.640625 -30.15625 14.1875 -30.765625 16.96875 -30.765625 C 21.363281 -30.765625 24.707031 -29.320312 27 -26.4375 L 27 -30.328125 Z M 18.71875 -8.671875 C 21.039062 -8.671875 22.941406 -9.359375 24.421875 -10.734375 C 25.910156 -12.109375 26.65625 -13.90625 26.65625 -16.125 C 26.65625 -18.332031 25.910156 -20.125 24.421875 -21.5 C 22.941406 -22.875 21.039062 -23.5625 18.71875 -23.5625 C 16.382812 -23.5625 14.460938 -22.875 12.953125 -21.5 C 11.453125 -20.125 10.703125 -18.332031 10.703125 -16.125 C 10.703125 -13.90625 11.453125 -12.109375 12.953125 -10.734375 C 14.460938 -9.359375 16.382812 -8.671875 18.71875 -8.671875 Z M 18.71875 -8.671875 "/></g></g><g style="fill:#ffffff;fill-opacity:1;"><g transform="translate(158.443571, 207.23152)"><path style="stroke:none" d="M 4.0625 -30.328125 L 12.84375 -30.328125 L 12.84375 0 L 4.0625 0 Z M 8.453125 -34.546875 C 6.835938 -34.546875 5.519531 -35.015625 4.5 -35.953125 C 3.488281 -36.890625 2.984375 -38.054688 2.984375 -39.453125 C 2.984375 -40.835938 3.488281 -42 4.5 -42.9375 C 5.519531 -43.882812 6.835938 -44.359375 8.453125 -44.359375 C 10.066406 -44.359375 11.378906 -43.90625 12.390625 -43 C 13.410156 -42.101562 13.921875 -40.976562 13.921875 -39.625 C 13.921875 -38.15625 13.410156 -36.941406 12.390625 -35.984375 C 11.378906 -35.023438 10.066406 -34.546875 8.453125 -34.546875 Z M 8.453125 -34.546875 "/></g></g><g style="fill:#ffffff;fill-opacity:1;"><g transform="translate(175.405107, 207.23152)"><path style="stroke:none" d="M 22.484375 -30.765625 C 26.242188 -30.765625 29.28125 -29.640625 31.59375 -27.390625 C 33.90625 -25.140625 35.0625 -21.796875 35.0625 -17.359375 L 35.0625 0 L 26.265625 0 L 26.265625 -16 C 26.265625 -18.40625 25.738281 -20.195312 24.6875 -21.375 C 23.632812 -22.5625 22.113281 -23.15625 20.125 -23.15625 C 17.90625 -23.15625 16.132812 -22.46875 14.8125 -21.09375 C 13.5 -19.726562 12.84375 -17.691406 12.84375 -14.984375 L 12.84375 0 L 4.0625 0 L 4.0625 -30.328125 L 12.453125 -30.328125 L 12.453125 -26.765625 C 13.617188 -28.046875 15.066406 -29.03125 16.796875 -29.71875 C 18.523438 -30.414062 20.421875 -30.765625 22.484375 -30.765625 Z M 22.484375 -30.765625 "/></g></g><g style="fill:#ffffff;fill-opacity:1;"><g transform="translate(214.343389, 207.23152)"><path style="stroke:none" d=""/></g></g><g style="fill:#ffffff;fill-opacity:1;"><g transform="translate(230.29062, 207.23152)"><path style="stroke:none" d="M 13.8125 -32.125 L 13.8125 -21.703125 L 32.0625 -21.703125 L 32.0625 -14.375 L 13.8125 -14.375 L 13.8125 0 L 4.671875 0 L 4.671875 -39.453125 L 34.484375 -39.453125 L 34.484375 -32.125 Z M 13.8125 -32.125 "/></g></g><g style="fill:#ffffff;fill-opacity:1;"><g transform="translate(265.509736, 207.23152)"><path style="stroke:none" d="M 18.484375 0.453125 C 15.285156 0.453125 12.421875 -0.210938 9.890625 -1.546875 C 7.359375 -2.878906 5.375 -4.726562 3.9375 -7.09375 C 2.507812 -9.46875 1.796875 -12.15625 1.796875 -15.15625 C 1.796875 -18.164062 2.507812 -20.851562 3.9375 -23.21875 C 5.375 -25.582031 7.359375 -27.429688 9.890625 -28.765625 C 12.421875 -30.097656 15.285156 -30.765625 18.484375 -30.765625 C 21.679688 -30.765625 24.535156 -30.097656 27.046875 -28.765625 C 29.566406 -27.429688 31.539062 -25.582031 32.96875 -23.21875 C 34.394531 -20.851562 35.109375 -18.164062 35.109375 -15.15625 C 35.109375 -12.15625 34.394531 -9.46875 32.96875 -7.09375 C 31.539062 -4.726562 29.566406 -2.878906 27.046875 -1.546875 C 24.535156 -0.210938 21.679688 0.453125 18.484375 0.453125 Z M 18.484375 -6.765625 C 20.742188 -6.765625 22.59375 -7.523438 24.03125 -9.046875 C 25.476562 -10.566406 26.203125 -12.601562 26.203125 -15.15625 C 26.203125 -17.71875 25.476562 -19.757812 24.03125 -21.28125 C 22.59375 -22.800781 20.742188 -23.5625 18.484375 -23.5625 C 16.234375 -23.5625 14.375 -22.800781 12.90625 -21.28125 C 11.4375 -19.757812 10.703125 -17.71875 10.703125 -15.15625 C 10.703125 -12.601562 11.4375 -10.566406 12.90625 -9.046875 C 14.375 -7.523438 16.234375 -6.765625 18.484375 -6.765625 Z M 18.484375 -6.765625 "/></g></g><g style="fill:#ffffff;fill-opacity:1;"><g transform="translate(302.419419, 207.23152)"><path style="stroke:none" d="M 12.453125 -26.3125 C 13.503906 -27.78125 14.921875 -28.890625 16.703125 -29.640625 C 18.492188 -30.390625 20.550781 -30.765625 22.875 -30.765625 L 22.875 -22.65625 C 21.90625 -22.726562 21.25 -22.765625 20.90625 -22.765625 C 18.394531 -22.765625 16.421875 -22.0625 14.984375 -20.65625 C 13.554688 -19.25 12.84375 -17.132812 12.84375 -14.3125 L 12.84375 0 L 4.0625 0 L 4.0625 -30.328125 L 12.453125 -30.328125 Z M 12.453125 -26.3125 "/></g></g><g style="fill:#ffffff;fill-opacity:1;"><g transform="translate(134.528095, 266.023459)"><path style="stroke:none" d="M 64.3125 -39.453125 L 51.40625 0 L 41.59375 0 L 32.90625 -26.71875 L 23.953125 0 L 14.203125 0 L 1.234375 -39.453125 L 10.703125 -39.453125 L 19.609375 -11.71875 L 28.90625 -39.453125 L 37.359375 -39.453125 L 46.390625 -11.5 L 55.5625 -39.453125 Z M 64.3125 -39.453125 "/></g></g><g style="fill:#ffffff;fill-opacity:1;"><g transform="translate(199.218598, 266.023459)"><path style="stroke:none" d="M 21.75 -39.453125 C 25.25 -39.453125 28.285156 -38.867188 30.859375 -37.703125 C 33.429688 -36.535156 35.410156 -34.878906 36.796875 -32.734375 C 38.191406 -30.597656 38.890625 -28.066406 38.890625 -25.140625 C 38.890625 -22.242188 38.191406 -19.710938 36.796875 -17.546875 C 35.410156 -15.390625 33.429688 -13.738281 30.859375 -12.59375 C 28.285156 -11.445312 25.25 -10.875 21.75 -10.875 L 13.8125 -10.875 L 13.8125 0 L 4.671875 0 L 4.671875 -39.453125 Z M 21.25 -18.3125 C 23.988281 -18.3125 26.070312 -18.90625 27.5 -20.09375 C 28.925781 -21.28125 29.640625 -22.960938 29.640625 -25.140625 C 29.640625 -27.359375 28.925781 -29.054688 27.5 -30.234375 C 26.070312 -31.421875 23.988281 -32.015625 21.25 -32.015625 L 13.8125 -32.015625 L 13.8125 -18.3125 Z M 21.25 -18.3125 "/></g></g></g></svg>